<?xml version="1.0" encoding="UTF-8"?>
<svg id="Layer_1" data-name="Layer 1" xmlns="http://www.w3.org/2000/svg" xmlns:xlink="http://www.w3.org/1999/xlink" viewBox="0 0 1024 1024">
  <defs>
    <style>
      .cls-1 {
        fill: url(#linear-gradient-3);
      }

      .cls-2 {
        fill: url(#linear-gradient-2);
      }

      .cls-3 {
        fill: url(#linear-gradient);
      }
    </style>
    <linearGradient id="linear-gradient" x1="502.83" y1="285.26" x2="501.91" y2="129.03" gradientUnits="userSpaceOnUse">
      <stop offset=".41" stop-color="#b45326"/>
      <stop offset=".57" stop-color="#c95b24"/>
      <stop offset=".85" stop-color="#e76721"/>
      <stop offset="1" stop-color="#f36c21"/>
    </linearGradient>
    <linearGradient id="linear-gradient-2" x1="509.06" y1="886.19" x2="507.76" y2="663.58" gradientUnits="userSpaceOnUse">
      <stop offset=".09" stop-color="#974108"/>
      <stop offset=".09" stop-color="#984108"/>
      <stop offset=".51" stop-color="#c95815"/>
      <stop offset=".82" stop-color="#e7661d"/>
      <stop offset="1" stop-color="#f36c21"/>
    </linearGradient>
    <linearGradient id="linear-gradient-3" x1="513.81" y1="859.03" x2="510.53" y2="299.17" xlink:href="#linear-gradient-2"/>
  </defs>
  <path class="cls-3" d="M327.45,285.64c-5.78-16.34-16.62-54.61,0-91.73,22.92-51.22,47.15-62.72,89.97-76.52,30.73-9.9,116.91-21.94,172.88,0,23.29,9.13,76.38,30.99,91.73,80.69,12.42,40.21-4.86,76.61-10.58,87.57h-58.22c14-38.08,6.21-61.03,1.76-70.57-29.93-64.26-175.43-71.23-218.75-10.15-21,29.61-7,60.84-1.76,80.71h-67.04Z"/>
  <g>
    <path class="cls-2" d="M569.89,738.07c-.79-.54-1.59-1.07-2.4-1.6-55.43-36.08-33.55-92.56-14.59-108.25,0,0-91.89-1.57-90.43,125.51,0,0-40.66,1.7-36.29-35.95,0,0-25.78,48.69-24.94,106.64.25,17.54,3.96,34.17,10.39,49.12,31.83,8.85,65.51,13.6,100.37,13.6,32.75,0,64.47-4.2,94.59-12.05,19.25-46.19,10.77-104.86-36.7-137.03Z"/>
    <path class="cls-1" d="M512,213.02c-196.52,0-355.83,150.91-355.83,337.06,0,143.11,94.15,265.38,226.98,314.28-39.24-33.57-64.04-78.67-64.92-140.26-1.47-102.71,59.43-239.63,59.43-239.63-7.76,66.73,49.11,97.31,49.11,97.31-2.58-225.2,160.27-222.42,160.27-222.42-33.6,27.8-72.38,127.89,25.85,191.84,1.44.94,2.86,1.88,4.26,2.83,102.06,69.15,115.01,225.99,43.97,302.18,122.04-53.43,206.72-170.4,206.72-306.12,0-186.15-159.31-337.06-355.83-337.06Z"/>
  </g>
</svg>