<?xml version="1.0" encoding="UTF-8"?>
<svg id="Layer_1" data-name="Layer 1" xmlns="http://www.w3.org/2000/svg" viewBox="0 0 1024 340">
  <defs>
    <style>
      .cls-1 {
        fill: #f36c21;
      }
    </style>
  </defs>
  <g>
    <path class="cls-1" d="M14.57,88.13h113.73v38.2H57.77v37.62h64.95v37.62H57.77v62.89H14.57V88.13Z"/>
    <path class="cls-1" d="M146.23,88.13h43.2v176.32h-43.2V88.13Z"/>
    <path class="cls-1" d="M217.64,88.13h73.76c37.91,0,62.59,22.92,62.59,56.13,0,30.86-15.57,48.2-41.73,54.66l47.61,65.53h-54.07l-44.96-65.83v65.83h-43.2V88.13ZM295.52,164.54c9.7,0,16.16-9.99,16.16-20.28s-7.64-19.39-17.34-19.39h-33.5v39.67h34.68Z"/>
    <path class="cls-1" d="M375.16,88.13h116.67v38.2h-73.47v31.74h67.88v37.62h-67.88v31.74h76.7v37.03h-119.9V88.13Z"/>
    <path class="cls-1" d="M691.75,88.13h113.73v38.2h-70.53v37.62h64.95v37.62h-64.95v62.89h-43.2V88.13Z"/>
    <path class="cls-1" d="M823.4,88.13h43.2v176.32h-43.2V88.13Z"/>
    <path class="cls-1" d="M925.97,126.34h-39.38v-38.2h122.84v38.2h-39.97v138.12h-43.49V126.34Z"/>
  </g>
  <path class="cls-1" d="M561.57,92.99c10.94,8.41,23.55,38.69-8.41,58.04-.47.28-.93.57-1.39.86-45.38,28.59-28.97,96.21,19.63,107.71-7.53-13.35-17.86-43.4,15.66-75.25,32.93,31.29,23.54,60.85,16.06,74.53,26.36-7.49,45.48-31.82,45.92-60.69.48-31.07-19.33-67.34-19.33-67.34,2.52,20.19-15.98,29.44-15.98,29.44.84-68.14-52.15-67.29-52.15-67.29"/>
</svg>